<?xml version="1.0" encoding="UTF-8"?>
<svg id="Layer_1" data-name="Layer 1" xmlns="http://www.w3.org/2000/svg" viewBox="0 0 1542.49 345.25">
  <defs>
    <style>
      .cls-1 {
        fill: #010101;
      }
    </style>
  </defs>
  <path class="cls-1" d="M284.88,219.1c-5.91-11.77-14.41-21.23-24.76-28.13-9.33-6.22-20.11-9.91-31.22-11.42l-5.43-.74,4.41-.83c13.41-2.52,25.72-9.38,34.55-19.78,23.76-27.97,29.73-77.12,10.33-106.2-16.29-24.8-45.55-36.69-75.88-36.57H17.69s3.07,107.91,37.95,122.77c34.88,14.86,20.06-43.28,71.7-40.05,51.68,3.23,42.63,51.68,42.63,51.68l45.86,28.42c-48.16,2.49-167.9-18.62-198.15,150.76,36.89-3.17,196.39,8.49,227.65-9.6,42.82-16.74,59.19-60.13,39.54-100.31Z"/>
  <g>
    <path class="cls-1" d="M370.82,246.14c-3.46,0-7.16-.4-11.09-1.2-3.93-.8-7.63-2.23-11.09-4.29-3.46-2.06-6.29-5.06-8.49-8.99-2.2-3.93-3.3-8.96-3.3-15.08,0-7.32,1.6-13.38,4.79-18.18s7.76-8.56,13.68-11.29c5.92-2.73,13.02-4.63,21.27-5.69,8.26-1.06,17.38-1.6,27.37-1.6v-7.79c0-3.06-.5-5.72-1.5-7.99-1-2.26-2.73-4.06-5.19-5.39-2.47-1.33-5.89-2-10.29-2s-7.96.53-10.69,1.6c-2.73,1.07-4.66,2.43-5.79,4.1-1.13,1.67-1.7,3.5-1.7,5.49v2.4h-26.97c-.13-.67-.2-1.3-.2-1.9v-2.3c0-6.12,1.86-11.42,5.59-15.88,3.73-4.46,8.99-7.89,15.78-10.29,6.79-2.4,14.71-3.6,23.77-3.6,9.72,0,17.88,1.27,24.47,3.8,6.59,2.53,11.65,6.26,15.18,11.19,3.53,4.93,5.29,11.12,5.29,18.58v47.74c0,2.4.7,4.16,2.1,5.29,1.4,1.13,2.96,1.7,4.69,1.7h6.59v18.18c-1.33.67-3.4,1.36-6.19,2.1-2.8.73-6.19,1.1-10.19,1.1s-7.29-.57-10.29-1.7c-3-1.13-5.49-2.73-7.49-4.79-2-2.06-3.4-4.56-4.2-7.49h-1.4c-2.27,2.8-5.03,5.26-8.29,7.39-3.26,2.13-7.06,3.8-11.39,4.99-4.33,1.2-9.29,1.8-14.88,1.8ZM380.21,225.17c3.73,0,7.06-.56,9.99-1.7,2.93-1.13,5.39-2.66,7.39-4.59,2-1.93,3.56-4.29,4.69-7.09,1.13-2.8,1.7-5.79,1.7-8.99v-5.79c-7.46,0-14.12.5-19.98,1.5-5.86,1-10.49,2.7-13.88,5.09-3.4,2.4-5.09,5.73-5.09,9.99,0,2.4.6,4.46,1.8,6.19,1.2,1.73,2.93,3.07,5.19,4,2.26.93,4.99,1.4,8.19,1.4Z"/>
    <path class="cls-1" d="M501.46,246.14c-7.33,0-13.92-.8-19.78-2.4-5.86-1.6-10.86-3.83-14.98-6.69-4.13-2.86-7.29-6.29-9.49-10.29-2.2-4-3.3-8.52-3.3-13.58v-1.6c0-.53.07-.93.2-1.2h26.77v1.6c.13,3.33,1.2,6.03,3.2,8.09,2,2.07,4.63,3.56,7.89,4.49,3.26.93,6.69,1.4,10.29,1.4,3.2,0,6.29-.3,9.29-.9,3-.6,5.53-1.7,7.59-3.3,2.06-1.6,3.1-3.66,3.1-6.19,0-3.2-1.3-5.66-3.9-7.39-2.6-1.73-5.99-3.13-10.19-4.2-4.2-1.06-8.76-2.26-13.68-3.6-4.53-1.06-9.06-2.3-13.58-3.7-4.53-1.4-8.62-3.23-12.29-5.49-3.66-2.26-6.63-5.23-8.89-8.89-2.27-3.66-3.4-8.29-3.4-13.88s1.2-10.22,3.6-14.28c2.4-4.06,5.69-7.42,9.89-10.09,4.19-2.66,9.12-4.63,14.78-5.89,5.66-1.26,11.75-1.9,18.28-1.9,6.12,0,11.85.63,17.18,1.9,5.33,1.27,9.99,3.13,13.98,5.59,4,2.47,7.12,5.53,9.39,9.19,2.26,3.66,3.4,7.76,3.4,12.29v2.6c0,.8-.07,1.33-.2,1.6h-26.57v-1.6c0-2.4-.73-4.43-2.2-6.09-1.47-1.66-3.56-2.96-6.29-3.9-2.73-.93-6.03-1.4-9.89-1.4-2.67,0-5.09.2-7.29.6s-4.1,1-5.69,1.8c-1.6.8-2.83,1.77-3.7,2.9-.87,1.13-1.3,2.5-1.3,4.1,0,2.27.96,4.1,2.9,5.49,1.93,1.4,4.5,2.57,7.69,3.5,3.2.93,6.72,1.93,10.59,3,4.79,1.33,9.82,2.63,15.08,3.9,5.26,1.27,10.15,2.97,14.68,5.09,4.53,2.13,8.19,5.16,10.99,9.09,2.8,3.93,4.2,9.22,4.2,15.88s-1.23,11.79-3.7,16.18c-2.47,4.4-5.89,7.93-10.29,10.59-4.4,2.67-9.52,4.59-15.38,5.79-5.86,1.2-12.19,1.8-18.98,1.8Z"/>
    <path class="cls-1" d="M569.98,243.74V99.11h27.77v83.3l36.76-43.75h32.56l-35.96,41.15,37.76,63.93h-31.76l-24.17-44.35-15.18,14.78v29.57h-27.77Z"/>
    <path class="cls-1" d="M715.22,246.14c-6.66,0-12.05-1.2-16.18-3.6-4.13-2.4-7.13-5.62-8.99-9.69-1.87-4.06-2.8-8.56-2.8-13.48v-59.33h-12.99v-21.38h13.98l5.19-29.96h21.58v29.96h19.18v21.38h-19.18v54.74c0,3.2.73,5.63,2.2,7.29,1.46,1.67,3.86,2.5,7.19,2.5h9.79v18.38c-1.6.53-3.46,1.03-5.59,1.5-2.13.46-4.39.86-6.79,1.2-2.4.33-4.59.5-6.59.5Z"/>
    <path class="cls-1" d="M752.17,243.74V99.31h27.77v50.94h1.4c2.26-2.8,4.96-5.23,8.09-7.29,3.13-2.06,6.66-3.7,10.59-4.89,3.93-1.2,8.22-1.8,12.88-1.8,6.92,0,12.99,1.27,18.18,3.8,5.19,2.53,9.22,6.53,12.09,11.99,2.86,5.46,4.29,12.59,4.29,21.38v70.32h-27.77v-65.92c0-3.33-.4-6.16-1.2-8.49-.8-2.33-1.97-4.26-3.5-5.79-1.53-1.53-3.43-2.63-5.69-3.3-2.27-.67-4.79-1-7.59-1-4.13,0-7.86,1-11.19,3-3.33,2-5.93,4.73-7.79,8.19-1.87,3.46-2.8,7.46-2.8,11.99v61.33h-27.77Z"/>
    <path class="cls-1" d="M920.18,246.14c-11.59,0-21.31-1.97-29.17-5.89-7.86-3.93-13.78-9.95-17.78-18.08-4-8.12-5.99-18.44-5.99-30.96s2-23,5.99-31.06c4-8.06,9.89-14.05,17.68-17.98,7.79-3.93,17.35-5.89,28.67-5.89,10.65,0,19.64,1.9,26.97,5.69,7.32,3.8,12.85,9.66,16.58,17.58,3.73,7.93,5.59,18.15,5.59,30.66v7.19h-73.31c.26,6.13,1.23,11.32,2.9,15.58,1.66,4.26,4.26,7.43,7.79,9.49,3.53,2.07,8.22,3.1,14.08,3.1,3.2,0,6.09-.4,8.69-1.2,2.6-.8,4.83-2,6.69-3.6,1.86-1.6,3.33-3.6,4.39-5.99,1.06-2.4,1.6-5.13,1.6-8.19h27.17c0,6.66-1.2,12.45-3.6,17.38-2.4,4.93-5.73,9.02-9.99,12.29-4.26,3.26-9.36,5.73-15.28,7.39-5.93,1.66-12.49,2.5-19.68,2.5ZM895.81,179.82h44.35c0-4-.5-7.46-1.5-10.39-1-2.93-2.37-5.33-4.09-7.19-1.73-1.86-3.83-3.23-6.29-4.1-2.47-.86-5.23-1.3-8.29-1.3-5.06,0-9.29.83-12.69,2.5-3.4,1.67-5.99,4.19-7.79,7.59-1.8,3.4-3.03,7.69-3.7,12.88Z"/>
    <path class="cls-1" d="M1047.83,246.14c-6.79,0-13.02-1.37-18.68-4.1-5.66-2.73-10.22-6.89-13.68-12.49h-1.4l-2.2,14.18h-22.77V99.31h27.77v50.94h1.2c2.13-3.06,4.73-5.66,7.79-7.79,3.06-2.13,6.52-3.7,10.39-4.69,3.86-1,8.06-1.5,12.58-1.5,8.26,0,15.48,1.93,21.67,5.79,6.19,3.86,11.02,9.82,14.48,17.88,3.46,8.06,5.19,18.41,5.19,31.06s-1.7,23.04-5.09,31.16c-3.4,8.12-8.26,14.15-14.58,18.08-6.33,3.93-13.88,5.89-22.67,5.89ZM1039.24,223.37c5.59,0,10.02-1.1,13.29-3.3,3.26-2.2,5.62-5.49,7.09-9.89,1.46-4.4,2.2-9.92,2.2-16.58v-4.59c0-6.66-.73-12.22-2.2-16.68-1.47-4.46-3.83-7.79-7.09-9.99-3.27-2.2-7.69-3.3-13.29-3.3-4,0-7.39.7-10.19,2.1-2.8,1.4-5.09,3.4-6.89,5.99-1.8,2.6-3.17,5.83-4.09,9.69-.93,3.86-1.4,8.12-1.4,12.79v3.6c0,6.26.8,11.66,2.4,16.18,1.6,4.53,4.06,7.99,7.39,10.39,3.33,2.4,7.59,3.6,12.79,3.6Z"/>
    <path class="cls-1" d="M1110.56,123.28v-23.97h27.77v23.97h-27.77ZM1110.56,243.74v-105.08h27.77v105.08h-27.77Z"/>
    <path class="cls-1" d="M1163.89,243.74v-105.08h22.97l2.2,16.38h1.4c1.33-3.46,3.06-6.62,5.19-9.49,2.13-2.86,4.79-5.16,7.99-6.89,3.2-1.73,6.92-2.6,11.19-2.6,2.26,0,4.33.23,6.19.7,1.86.47,3.26.9,4.2,1.3v25.17h-8.59c-4.13,0-7.76.57-10.89,1.7-3.13,1.13-5.76,2.9-7.89,5.29-2.13,2.4-3.7,5.33-4.7,8.79-1,3.46-1.5,7.53-1.5,12.19v52.54h-27.77Z"/>
    <path class="cls-1" d="M1274.97,246.14c-8.66,0-16.15-1.97-22.47-5.89-6.33-3.93-11.22-9.95-14.68-18.08-3.46-8.12-5.19-18.51-5.19-31.16s1.76-23,5.29-31.06c3.53-8.06,8.39-14.02,14.58-17.88,6.19-3.86,13.35-5.79,21.48-5.79,4.53,0,8.75.5,12.69,1.5,3.93,1,7.39,2.57,10.39,4.69,3,2.13,5.56,4.73,7.69,7.79h1.2v-50.94h27.77v144.43h-22.77l-2.2-14.18h-1.4c-3.46,5.59-7.99,9.76-13.58,12.49-5.59,2.73-11.85,4.1-18.78,4.1ZM1283.76,223.37c5.19,0,9.42-1.2,12.69-3.6,3.26-2.4,5.69-5.86,7.29-10.39,1.6-4.53,2.4-9.92,2.4-16.18v-3.6c0-4.66-.43-8.92-1.3-12.79-.87-3.86-2.23-7.09-4.1-9.69-1.87-2.6-4.2-4.59-6.99-5.99-2.8-1.4-6.13-2.1-9.99-2.1-5.59,0-10.06,1.1-13.38,3.3-3.33,2.2-5.73,5.53-7.19,9.99-1.47,4.46-2.2,10.02-2.2,16.68v4.59c0,6.66.73,12.19,2.2,16.58,1.46,4.4,3.86,7.69,7.19,9.89,3.33,2.2,7.79,3.3,13.38,3.3Z"/>
    <path class="cls-1" d="M1359.27,123.28v-23.97h27.77v23.97h-27.77ZM1359.27,243.74v-105.08h27.77v105.08h-27.77Z"/>
    <path class="cls-1" d="M1460.35,246.14c-11.59,0-21.31-1.97-29.17-5.89-7.86-3.93-13.78-9.95-17.78-18.08-4-8.12-5.99-18.44-5.99-30.96s2-23,5.99-31.06c4-8.06,9.89-14.05,17.68-17.98,7.79-3.93,17.35-5.89,28.67-5.89,10.65,0,19.64,1.9,26.97,5.69,7.32,3.8,12.85,9.66,16.58,17.58,3.73,7.93,5.59,18.15,5.59,30.66v7.19h-73.31c.26,6.13,1.23,11.32,2.9,15.58,1.66,4.26,4.26,7.43,7.79,9.49,3.53,2.07,8.22,3.1,14.08,3.1,3.2,0,6.09-.4,8.69-1.2,2.6-.8,4.83-2,6.69-3.6,1.86-1.6,3.33-3.6,4.39-5.99,1.06-2.4,1.6-5.13,1.6-8.19h27.17c0,6.66-1.2,12.45-3.6,17.38-2.4,4.93-5.73,9.02-9.99,12.29-4.26,3.26-9.36,5.73-15.28,7.39-5.93,1.66-12.49,2.5-19.68,2.5ZM1435.98,179.82h44.35c0-4-.5-7.46-1.5-10.39-1-2.93-2.37-5.33-4.09-7.19-1.73-1.86-3.83-3.23-6.29-4.1-2.47-.86-5.23-1.3-8.29-1.3-5.06,0-9.29.83-12.69,2.5-3.4,1.67-5.99,4.19-7.79,7.59-1.8,3.4-3.03,7.69-3.7,12.88Z"/>
  </g>
</svg>